<svg width="34" height="38" viewBox="0 0 34 38" fill="none" xmlns="http://www.w3.org/2000/svg">
<g id="Group">
<path id="Vector" fill-rule="evenodd" clip-rule="evenodd" d="M21.8676 19.6805C21.5863 18.8849 21.0652 18.1961 20.3762 17.709C19.6872 17.2218 18.8641 16.9602 18.0202 16.9602V15.9402H15.9803V16.9602C14.8982 16.9602 13.8604 17.39 13.0953 18.1552C12.3302 18.9203 11.9003 19.9581 11.9003 21.0401C11.9003 22.1222 12.3302 23.1599 13.0953 23.9251C13.8604 24.6902 14.8982 25.1201 15.9803 25.1201V29.2C15.0929 29.2 14.3371 28.6339 14.0555 27.8404C14.0138 27.7106 13.9464 27.5904 13.8574 27.4871C13.7684 27.3838 13.6595 27.2993 13.5373 27.2388C13.4151 27.1782 13.282 27.1428 13.1459 27.1346C13.0098 27.1264 12.8734 27.1456 12.7448 27.191C12.6162 27.2365 12.498 27.3072 12.3972 27.3991C12.2965 27.491 12.2151 27.6022 12.1581 27.7261C12.101 27.85 12.0694 27.984 12.0651 28.1203C12.0607 28.2566 12.0838 28.3924 12.1329 28.5197C12.4142 29.3153 12.9353 30.004 13.6243 30.4912C14.3133 30.9784 15.1364 31.24 15.9803 31.24V32.26H18.0202V31.24C19.1023 31.24 20.14 30.8102 20.9052 30.045C21.6703 29.2799 22.1002 28.2421 22.1002 27.1601C22.1002 26.078 21.6703 25.0402 20.9052 24.2751C20.14 23.51 19.1023 23.0801 18.0202 23.0801V19.0001C18.4421 19 18.8536 19.1307 19.1982 19.3742C19.5427 19.6177 19.8032 19.9621 19.9439 20.3598C20.034 20.6149 20.2217 20.8238 20.4658 20.9404C20.5867 20.9982 20.7177 21.0316 20.8515 21.0388C20.9853 21.0459 21.1191 21.0266 21.2454 20.982C21.3717 20.9374 21.488 20.8683 21.5877 20.7788C21.6873 20.6892 21.7683 20.581 21.8261 20.4601C21.8839 20.3392 21.9173 20.2082 21.9244 20.0744C21.9315 19.9407 21.9122 19.8068 21.8676 19.6805ZM15.9803 19.0001C15.4392 19.0001 14.9203 19.2151 14.5378 19.5976C14.1552 19.9802 13.9403 20.4991 13.9403 21.0401C13.9403 21.5812 14.1552 22.1 14.5378 22.4826C14.9203 22.8652 15.4392 23.0801 15.9803 23.0801V19.0001ZM18.0202 29.2C18.5613 29.2 19.0801 28.9851 19.4627 28.6025C19.8453 28.22 20.0602 27.7011 20.0602 27.1601C20.0602 26.619 19.8453 26.1001 19.4627 25.7176C19.0801 25.335 18.5613 25.1201 18.0202 25.1201V29.2Z" fill="black"/>
<path id="Vector_2" fill-rule="evenodd" clip-rule="evenodd" d="M5.9364 3.31377C8.43945 2.08876 12.5459 0.640381 17.04 0.640381C21.4402 0.640381 25.4386 2.02858 27.9284 3.23727L28.0691 3.30561C28.8198 3.67689 29.4257 4.02776 29.8521 4.31234L26.0842 9.82027C34.7704 18.7003 41.4799 37.3569 17.04 37.3569C-7.39994 37.3569 -0.871 19.0389 7.8907 9.82027L4.14734 4.31234C4.436 4.12364 4.80217 3.90434 5.23873 3.67179C5.45497 3.55551 5.68752 3.43617 5.9364 3.31479V3.31377ZM23.6628 9.74683L26.6789 5.33743C23.8739 5.53938 20.5365 6.1983 17.3235 7.12852C15.0286 7.79152 12.4786 7.69054 10.1173 7.255C9.5223 7.14469 8.93136 7.01337 8.34561 6.86129L10.304 9.74479C14.5012 11.2391 19.4645 11.2391 23.6628 9.74683ZM9.1259 11.4829C14.0371 13.38 19.9398 13.38 24.8511 11.4808C26.9011 13.6419 28.616 16.0977 29.9388 18.7666C31.3178 21.5797 32.0685 24.3918 31.9461 26.8153C31.8278 29.1541 30.9077 31.1523 28.8066 32.6374C26.6167 34.1847 22.9335 35.3169 17.039 35.3169C11.1383 35.3169 7.43782 34.2041 5.22751 32.6741C3.11103 31.2074 2.18182 29.2368 2.05025 26.9296C1.91255 24.5326 2.64694 21.7348 4.02086 18.9022C5.33155 16.2013 7.16039 13.6014 9.1259 11.4829ZM7.95292 4.63465C8.76891 4.87741 9.62162 5.08855 10.4866 5.24869C12.6795 5.6526 14.8786 5.71176 16.7554 5.16811C18.9425 4.53097 21.1669 4.02987 23.4159 3.66771C21.5392 3.10263 19.3441 2.68036 17.039 2.68036C13.5251 2.68036 10.2479 3.66057 7.95292 4.63465Z" fill="black"/>
</g>
</svg>
