<svg width="26" height="36" viewBox="0 0 26 36" fill="none" xmlns="http://www.w3.org/2000/svg">
<g id="Group">
<path id="Vector" d="M24.6667 34.6666V22.8333C24.6664 21.301 24.3642 19.7837 23.7773 18.3681C23.1905 16.9526 22.3306 15.6665 21.2467 14.5833L17.9967 11.3333V22.3116C17.9967 23.795 16.2017 24.54 15.1517 23.49L12.9934 21.3333C12.16 20.5 10.1584 20 8.82335 21.3333C7.49002 22.6666 7.99002 24.6666 8.82335 25.5L17.9967 34.6666" stroke="black" stroke-width="2" stroke-linecap="round" stroke-linejoin="round"/>
<path id="Vector_2" d="M11.3333 1.33331H14.6667C15.5507 1.33331 16.3986 1.6845 17.0237 2.30962C17.6488 2.93474 18 3.78259 18 4.66665V7.99998M11.3333 1.33331C11.3333 3.55498 12.6667 7.99998 18 7.99998M11.3333 1.33331H8.00001M18 7.99998V18M1.33334 18V7.99998M8.00001 1.33331H4.66668C3.78262 1.33331 2.93478 1.6845 2.30965 2.30962C1.68453 2.93474 1.33334 3.78259 1.33334 4.66665V7.99998M8.00001 1.33331C8.00001 3.55498 6.66668 7.99998 1.33334 7.99998M1.33334 18V21.3333C1.33334 22.2174 1.68453 23.0652 2.30965 23.6903C2.93478 24.3155 3.78262 24.6666 4.66668 24.6666H8.00001C8.00001 22.445 6.66668 18 1.33334 18Z" stroke="black" stroke-width="2" stroke-linecap="round" stroke-linejoin="round"/>
<path id="Vector_3" d="M8.00001 13C8.00001 13.9205 8.7462 14.6666 9.66668 14.6666C10.5872 14.6666 11.3333 13.9205 11.3333 13C11.3333 12.0795 10.5872 11.3333 9.66668 11.3333C8.7462 11.3333 8.00001 12.0795 8.00001 13Z" stroke="black" stroke-width="2" stroke-linecap="round" stroke-linejoin="round"/>
</g>
</svg>
