<svg width="44" height="44" viewBox="0 0 44 44" fill="none" xmlns="http://www.w3.org/2000/svg">
<g id="Icon-Sale">
<path id="Vector" d="M22 41C32.4934 41 41 32.4934 41 22C41 11.5066 32.4934 3 22 3C11.5066 3 3 11.5066 3 22C3 32.4934 11.5066 41 22 41Z" stroke="black" stroke-width="2.75" stroke-linecap="round" stroke-linejoin="round"/>
<path id="Vector_2" d="M27.6 16.0017C27.2377 15.3734 26.7113 14.8554 26.0772 14.5032C25.443 14.151 24.725 13.9779 24 14.0023H20C18.9391 14.0023 17.9217 14.4236 17.1716 15.1735C16.4214 15.9234 16 16.9406 16 18.0011C16 19.0617 16.4214 20.0788 17.1716 20.8288C17.9217 21.5787 18.9391 22 20 22H24C25.0609 22 26.0783 22.4213 26.8284 23.1712C27.5786 23.9212 28 24.9383 28 25.9989C28 27.0594 27.5786 28.0766 26.8284 28.8265C26.0783 29.5764 25.0609 29.9977 24 29.9977H20C19.275 30.0221 18.557 29.849 17.9228 29.4968C17.2887 29.1446 16.7623 28.6266 16.4 27.9983" stroke="black" stroke-width="2.75" stroke-linecap="round" stroke-linejoin="round"/>
<path id="Vector_3" d="M22 9V13.3333M22 30.6667V35" stroke="black" stroke-width="2.75" stroke-linecap="round" stroke-linejoin="round"/>
</g>
</svg>
